<svg xmlns="http://www.w3.org/2000/svg" xmlns:xlink="http://www.w3.org/1999/xlink"><defs><style>
    .sprite-symbol-usage {display: none;}
    .sprite-symbol-usage:target {display: inline;}
  </style><symbol class="icon" viewBox="0 0 1024 1024" id="components_Menu_triangular"><defs><style type="text/css"></style></defs><path d="M151.476947 199.553918l718.53082 0c39.763632 0 71.922053 31.909757 71.922053 71.675436 0 18.485003-7.095605 35.205826-18.486026 47.872311L568.114019 793.227056c-23.810289 31.400151-68.641333 37.993313-100.29731 14.183024-5.570879-4.052293-10.384511-8.873088-14.183024-14.190187L94.235245 314.041416c-23.547299-31.407314-17.217127-76.479859 14.436804-100.041484 12.922311-9.881045 27.864628-14.43885 42.804898-14.43885l0 0L151.476947 199.553918zM151.476947 199.553918" p-id="1033" /></symbol><symbol viewBox="0 0 48 48" id="github_bsl_assets_check-circle"><path d="M24 48c13.255 0 24-10.745 24-24S37.255 0 24 0 0 10.745 0 24s10.745 24 24 24zM13.1 23.2l-2.2 2.1 10 9.9L38.1 15l-2.2-2-15.2 17.8-7.6-7.6z" fill-rule="evenodd" /></symbol><symbol viewBox="0 0 72 72" id="github_bsl_assets_fail"><g fill="none" fill-rule="evenodd"><path d="M36 72c19.882 0 36-16.118 36-36S55.882 0 36 0 0 16.118 0 36s16.118 36 36 36zm0-2c18.778 0 34-15.222 34-34S54.778 2 36 2 2 17.222 2 36s15.222 34 34 34z" fill="#FFF" /><path d="M22 22l28.304 28.304m-28.304 0L50.304 22" stroke="#FFF" stroke-width="2" /></g></symbol><symbol viewBox="0 0 1024 1024" id="github_bsl_assets_loading">
  <path d="M512.056 908.647c-84.516 0-166.416-27.084-235.266-78.637-84.15-63.028-138.741-155.109-153.675-259.2-14.934-104.119 11.559-207.816 74.588-291.994 130.162-173.812 377.438-209.25 551.194-79.172 72.844 54.562 124.819 133.228 146.391 221.484 3.684 15.103-5.569 30.319-20.644 34.003-15.075 3.572-30.319-5.541-34.003-20.644-18.45-75.628-63-143.044-125.466-189.816-148.866-111.516-360.844-81.112-472.444 67.866-54.028 72.141-76.725 161.016-63.9 250.256 12.797 89.241 59.597 168.131 131.737 222.131 149.006 111.656 360.956 81.197 472.5-67.781 29.194-39.009 49.219-82.716 59.456-129.938 3.319-15.188 18.366-24.834 33.441-21.544 15.188 3.291 24.834 18.281 21.544 33.441-12.009 55.181-35.353 106.2-69.413 151.762-63.028 84.15-155.109 138.769-259.256 153.675-18.984 2.756-37.941 4.106-56.784 4.106z" />
</symbol><symbol viewBox="0 0 1024 1024" id="github_bsl_assets_prompt"><defs><style></style></defs><path d="M511.846 0A511.795 511.795 0 0 0 0 511.846a511.795 511.795 0 0 0 511.846 511.847 511.795 511.795 0 0 0 511.847-511.847C1023.693 229.222 794.47 0 511.846 0zm2.15 948.838a434.79 434.79 0 0 1-434.84-434.841 434.79 434.79 0 0 1 434.84-434.842 434.79 434.79 0 0 1 434.842 434.842c-.102 240.179-194.764 434.841-434.841 434.841zm-2.15-692.94a42.7 42.7 0 0 0-42.65 42.7v277.248a42.7 42.7 0 0 0 85.3 0V298.598a42.803 42.803 0 0 0-42.65-42.7zm0 426.547a42.7 42.7 0 0 0 0 85.299 42.7 42.7 0 0 0 0-85.3z" /></symbol><symbol viewBox="0 0 16 25" id="github_bsl_assets_rightArrow">
<path d="M15.996,12.528 L3.314,24.995 L0.380,21.983 L10.128,12.402 L-0.006,3.074 L3.121,-0.000 L15.996,12.528 Z" />
</symbol><symbol viewBox="0 0 72 72" id="github_bsl_assets_success"><g fill="none" fill-rule="evenodd"><path d="M36 72c19.882 0 36-16.118 36-36S55.882 0 36 0 0 16.118 0 36s16.118 36 36 36zm0-2c18.778 0 34-15.222 34-34S54.778 2 36 2 2 17.222 2 36s15.222 34 34 34z" fill="#FFF" /><path stroke="#FFF" stroke-width="2" d="M19 34.54l11.545 11.923L52.815 24" /></g></symbol><symbol class="icon" viewBox="0 0 1024 1024" id="github_bsl_components_Image_image"><defs><style type="text/css"></style></defs><path d="M887.476828 0.128929 136.623117 0.128929c-18.862592 0-136.516676 0-136.516676 136.516676l0 750.809735c0 136.54466 136.516676 136.54466 136.516676 136.54466l750.85471 0c136.515676 0 136.515676-136.54466 136.515676-136.54466L1023.993504 136.645605C1023.992504 0.128929 906.352413 0.128929 887.476828 0.128929M955.733167 887.45534c0 0 0 68.258338-68.256339 68.258338L630.030876 687.567629 489.654329 809.482362l-210.643776-195.032389L68.377772 809.482362 68.377772 136.644605c0-68.258338 49.381753-68.258338 68.244346-68.258338L887.476828 68.386267c18.875585 0 68.256339 0 68.256339 68.258338L955.733167 887.45534zM682.699815 272.633572c-75.516333 0-136.725561 61.318167-136.725561 136.960431 0 75.586295 61.209227 136.932446 136.725561 136.932446 75.477355 0 136.725561-61.347151 136.725561-136.932446C819.425376 333.952739 758.17717 272.633572 682.699815 272.633572" p-id="14191" fill="#8a8a8a" /></symbol><symbol viewBox="0 0 48 48" id="pages_Component_Icon_基本用法_assets_check-circle-o"><g fill-rule="evenodd"><path d="M24 48c13.255 0 24-10.745 24-24S37.255 0 24 0 0 10.745 0 24s10.745 24 24 24zm0-3c11.598 0 21-9.402 21-21S35.598 3 24 3 3 12.402 3 24s9.402 21 21 21z" /><path d="M12.2 23.2L10 25.3l10 9.9L37.2 15 35 13 19.8 30.8z" /></g></symbol><symbol viewBox="0 0 48 48" id="pages_Component_Icon_基本用法_assets_cross-circle"><g fill-rule="evenodd"><path d="M24 48c13.255 0 24-10.745 24-24S37.255 0 24 0 0 10.745 0 24s10.745 24 24 24zm0-3c11.598 0 21-9.402 21-21S35.598 3 24 3 3 12.402 3 24s9.402 21 21 21z" /><path d="M24.34 22.22l-7.775-7.775a1.5 1.5 0 1 0-2.12 2.12l7.773 7.775-7.774 7.775a1.5 1.5 0 1 0 2.12 2.12l7.775-7.773 7.774 7.774a1.5 1.5 0 1 0 2.12-2.12L26.46 24.34l7.774-7.774a1.5 1.5 0 1 0-2.12-2.12l-7.776 7.773z" /></g></symbol><symbol viewBox="0 0 48 48" id="pages_Component_Icon_基本用法_assets_cross-circle-o"><path d="M24 48c13.255 0 24-10.745 24-24S37.255 0 24 0 0 10.745 0 24s10.745 24 24 24zm.353-25.77l-7.593-7.593c-.797-.8-1.538-.822-2.263-.207-.724.614-.56 1.617-.124 2.067l7.852 7.847-7.72 7.723c-.727.728-.56 1.646-.066 2.177.493.532 1.553.683 2.31-.174l7.588-7.584 7.644 7.623c.796.798 1.608.724 2.21.145.605-.58.72-1.442-.074-2.24l-7.657-7.67 7.545-7.52c.81-.697.9-1.76.297-2.34-.92-.885-1.85-.338-2.264.078l-7.685 7.667z" fill-rule="evenodd" /></symbol></defs><use id="components_Menu_triangular-usage" xlink:href="#components_Menu_triangular" class="sprite-symbol-usage" /><use id="github_bsl_assets_check-circle-usage" xlink:href="#github_bsl_assets_check-circle" class="sprite-symbol-usage" /><use id="github_bsl_assets_fail-usage" xlink:href="#github_bsl_assets_fail" class="sprite-symbol-usage" /><use id="github_bsl_assets_loading-usage" xlink:href="#github_bsl_assets_loading" class="sprite-symbol-usage" /><use id="github_bsl_assets_prompt-usage" xlink:href="#github_bsl_assets_prompt" class="sprite-symbol-usage" /><use id="github_bsl_assets_rightArrow-usage" xlink:href="#github_bsl_assets_rightArrow" class="sprite-symbol-usage" /><use id="github_bsl_assets_success-usage" xlink:href="#github_bsl_assets_success" class="sprite-symbol-usage" /><use id="github_bsl_components_Image_image-usage" xlink:href="#github_bsl_components_Image_image" class="sprite-symbol-usage" /><use id="pages_Component_Icon_基本用法_assets_check-circle-o-usage" xlink:href="#pages_Component_Icon_基本用法_assets_check-circle-o" class="sprite-symbol-usage" /><use id="pages_Component_Icon_基本用法_assets_cross-circle-usage" xlink:href="#pages_Component_Icon_基本用法_assets_cross-circle" class="sprite-symbol-usage" /><use id="pages_Component_Icon_基本用法_assets_cross-circle-o-usage" xlink:href="#pages_Component_Icon_基本用法_assets_cross-circle-o" class="sprite-symbol-usage" /></svg>