<?xml version="1.0" standalone="no"?><!DOCTYPE svg PUBLIC "-//W3C//DTD SVG 1.1//EN" "http://www.w3.org/Graphics/SVG/1.1/DTD/svg11.dtd"><svg t="1562809550922" class="icon" viewBox="0 0 1024 1024" version="1.1" xmlns="http://www.w3.org/2000/svg" p-id="14190" xmlns:xlink="http://www.w3.org/1999/xlink" width="200" height="200"><defs><style type="text/css"></style></defs><path d="M887.476828 0.128929 136.623117 0.128929c-18.862592 0-136.516676 0-136.516676 136.516676l0 750.809735c0 136.54466 136.516676 136.54466 136.516676 136.54466l750.85471 0c136.515676 0 136.515676-136.54466 136.515676-136.54466L1023.993504 136.645605C1023.992504 0.128929 906.352413 0.128929 887.476828 0.128929M955.733167 887.45534c0 0 0 68.258338-68.256339 68.258338L630.030876 687.567629 489.654329 809.482362l-210.643776-195.032389L68.377772 809.482362 68.377772 136.644605c0-68.258338 49.381753-68.258338 68.244346-68.258338L887.476828 68.386267c18.875585 0 68.256339 0 68.256339 68.258338L955.733167 887.45534zM682.699815 272.633572c-75.516333 0-136.725561 61.318167-136.725561 136.960431 0 75.586295 61.209227 136.932446 136.725561 136.932446 75.477355 0 136.725561-61.347151 136.725561-136.932446C819.425376 333.952739 758.17717 272.633572 682.699815 272.633572" p-id="14191" fill="#8a8a8a"></path></svg>