<svg 
 xmlns="http://www.w3.org/2000/svg"
 xmlns:xlink="http://www.w3.org/1999/xlink"
 width="56px" height="56px">
<path
 d="M54.000,30.000 L30.000,30.000 L30.000,54.000 C30.000,55.105 29.105,56.000 28.000,56.000 C26.896,56.000 26.000,55.105 26.000,54.000 L26.000,30.000 L2.000,30.000 C0.895,30.000 0.000,29.104 0.000,28.000 C0.000,26.895 0.895,26.000 2.000,26.000 L26.000,26.000 L26.000,2.000 C26.000,0.895 26.896,-0.000 28.000,-0.000 C29.105,-0.000 30.000,0.895 30.000,2.000 L30.000,26.000 L54.000,26.000 C55.104,26.000 56.000,26.895 56.000,28.000 C56.000,29.104 55.104,30.000 54.000,30.000 Z"/>
</svg>