<?xml version="1.0" standalone="no"?><!DOCTYPE svg PUBLIC "-//W3C//DTD SVG 1.1//EN" "http://www.w3.org/Graphics/SVG/1.1/DTD/svg11.dtd"><svg t="1557674228522" class="icon" style="" viewBox="0 0 1024 1024" version="1.1" xmlns="http://www.w3.org/2000/svg" p-id="5533" xmlns:xlink="http://www.w3.org/1999/xlink" width="200" height="200"><defs><style type="text/css"></style></defs><path d="M980.151134 313.820319c-26.653233-60.184719-62.764064-113.491184-108.332494-161.638959C826.25021 105.753149 770.3644 69.642317 710.179681 42.989085c-62.764064-26.653233-128.107473-41.269521-197.74979-41.269521-67.922754 0-134.985726 14.616289-197.74979 41.269521-60.184719 26.653233-113.491184 62.764064-161.638959 108.332494C105.753149 197.74979 69.642317 253.6356 42.989085 313.820319c-26.653233 62.764064-41.269521 128.107473-41.269521 197.74979 0 67.922754 14.616289 134.985726 41.269521 197.74979 26.653233 60.184719 62.764064 113.491184 108.332494 161.638959 45.56843 45.56843 101.45424 82.539043 161.638959 108.332494 62.764064 26.653233 128.107473 41.269521 197.74979 41.269521 67.922754 0 134.985726-14.616289 197.74979-41.269521 60.184719-26.653233 113.491184-62.764064 161.638959-108.332494 45.56843-45.56843 82.539043-101.45424 108.332494-161.638959 26.653233-62.764064 41.269521-128.107473 41.269521-197.74979C1021.420655 444.507137 1006.804366 376.584383 980.151134 313.820319zM738.552477 770.3644 514.149454 545.961377 294.04534 765.205709l-33.531486-33.531486 220.104114-220.104114L255.355164 287.167086l33.531486-33.531486 224.403023 224.403023L734.253568 257.934509l33.531486 33.531486L547.68094 511.570109l224.403023 224.403023L738.552477 770.3644z" p-id="5534"></path></svg>