<?xml version="1.0" standalone="no"?><!DOCTYPE svg PUBLIC "-//W3C//DTD SVG 1.1//EN" "http://www.w3.org/Graphics/SVG/1.1/DTD/svg11.dtd"><svg t="1558779661786" class="icon" style="" viewBox="0 0 1024 1024" version="1.1" xmlns="http://www.w3.org/2000/svg" p-id="14190" xmlns:xlink="http://www.w3.org/1999/xlink" width="200" height="200"><defs><style type="text/css"></style></defs><path d="M279.272727 558.545455l465.454545 0 0 46.545455-465.454545 0 0-46.545455ZM279.272727 698.181818l465.454545 0 0 46.545455-465.454545 0 0-46.545455ZM279.272727 139.636364l279.272727 0 0 46.545455-279.272727 0 0-46.545455ZM279.272727 837.818182l465.454545 0 0 46.545455-465.454545 0 0-46.545455ZM279.272727 418.909091l465.454545 0 0 46.545455-465.454545 0 0-46.545455ZM861.789091 1024c0 0 22.574545 0 22.574545-22.760727L884.363636 204.8 681.239273 0 162.210909 0C162.210909 0 139.636364 0 139.636364 22.760727L139.636364 1001.192727C139.636364 1024 162.210909 1024 162.210909 1024L861.789091 1024zM186.181818 46.545455l465.454545 0 0 139.636364c0 46.545455 46.545455 46.545455 46.545455 46.545455l139.636364 0 0 744.727273L186.181818 977.454545 186.181818 46.545455zM279.272727 279.272727l465.454545 0 0 46.545455-465.454545 0 0-46.545455Z" p-id="14191"></path></svg>