<svg class="icon" viewBox="0 0 1024 1024" xmlns="http://www.w3.org/2000/svg" width="200" height="200"><defs><style/></defs><path d="M511.846 0A511.795 511.795 0 0 0 0 511.846a511.795 511.795 0 0 0 511.846 511.847 511.795 511.795 0 0 0 511.847-511.847C1023.693 229.222 794.47 0 511.846 0zm2.15 948.838a434.79 434.79 0 0 1-434.84-434.841 434.79 434.79 0 0 1 434.84-434.842 434.79 434.79 0 0 1 434.842 434.842c-.102 240.179-194.764 434.841-434.841 434.841zm-2.15-692.94a42.7 42.7 0 0 0-42.65 42.7v277.248a42.7 42.7 0 0 0 85.3 0V298.598a42.803 42.803 0 0 0-42.65-42.7zm0 426.547a42.7 42.7 0 0 0 0 85.299 42.7 42.7 0 0 0 0-85.3z" /></svg>