<svg 
 xmlns="http://www.w3.org/2000/svg"
 xmlns:xlink="http://www.w3.org/1999/xlink"
 width="24px" height="24px">
<path
 d="M17.811,20.074 C15.949,21.468 13.640,22.293 11.138,22.293 C4.980,22.293 -0.008,17.303 -0.008,11.145 C-0.008,4.989 4.980,-0.003 11.138,-0.003 C17.292,-0.003 22.282,4.989 22.282,11.145 C22.282,13.650 21.458,15.960 20.062,17.822 L23.528,21.286 C24.147,21.905 24.149,22.907 23.522,23.533 C22.900,24.155 21.883,24.146 21.275,23.538 L17.811,20.074 ZM11.138,19.108 C15.535,19.108 19.100,15.543 19.100,11.145 C19.100,6.747 15.535,3.183 11.138,3.183 C6.736,3.183 3.177,6.747 3.177,11.145 C3.177,15.543 6.736,19.108 11.138,19.108 L11.138,19.108 Z"/>
</svg>